<svg width="40" height="40" xmlns="http://www.w3.org/2000/svg">
 <!-- Created with Method Draw - http://github.com/duopixel/Method-Draw/ -->

 <g>
  <title>background</title>
  <rect fill="none" id="canvas_background" height="42" width="42" y="-1" x="-1"/>
  <g display="none" overflow="visible" y="0" x="0" height="100%" width="100%" id="canvasGrid">
   <rect fill="url(#gridpattern)" stroke-width="0" y="0" x="0" height="100%" width="100%"/>
  </g>
 </g>
 <g>
  <title>Layer 1</title>
  <ellipse stroke="#000" ry="16.675532" rx="17.473404" id="svg_11" cy="21.573295" cx="19.872341" stroke-opacity="null" stroke-width="1.5" fill="#ff7f00"/>
  <ellipse ry="5.780022" rx="7.01459" id="svg_7" cy="7.959233" cx="11.237284" stroke="#000" fill="#ff7f00"/>
  <ellipse ry="5.780022" rx="7.01459" id="svg_8" cy="7.959233" cx="30.543051" stroke="#000" fill="#ff7f00"/>
  <ellipse ry="2.077807" rx="2.298851" id="svg_15" cy="8.126447" cx="11.40805" stroke-opacity="null" stroke-width="0.3" stroke="#000" fill="#ff7f00"/>
  <ellipse ry="2.077807" rx="2.298851" id="svg_17" cy="8.126447" cx="30.240235" stroke-opacity="null" stroke-width="0.3" stroke="#000" fill="#ff7f00"/>
  <path id="svg_26" d="m11.565333,7.47659c0.043995,-0.060218 0.124487,-0.138661 -0.013808,-0.157585c-0.038524,-0.014948 -0.07706,-0.041397 -0.115534,-0.011933c-0.085604,0.02556 -0.159812,0.061304 -0.069773,0.128199c0.039928,0.043201 0.076243,0.137462 0.121471,0.147844c0.026994,-0.035035 0.052281,-0.070806 0.077644,-0.106525l0,0zm-0.189112,0.166269c-0.078585,-0.106012 -0.141825,-0.219744 -0.238009,-0.317541c-0.116985,-0.094406 -0.347487,-0.052323 -0.399869,0.069447c-0.069583,0.120391 0.080555,0.264133 0.250519,0.249065c0.128976,0.001633 0.258687,0.006023 0.387359,-0.000971zm0.653023,0.003579c0.167142,-0.016934 0.26326,-0.175974 0.168096,-0.281573c-0.084331,-0.112692 -0.326949,-0.116621 -0.411648,-0.002101c-0.073341,0.092584 -0.136997,0.189331 -0.204297,0.284453c0.148789,0.00643 0.298977,0.00493 0.44785,-0.00078l0,0zm0.276804,0.135597c0.05698,-0.037895 0.277629,-0.08257 0.11052,-0.118559c-0.041397,-0.008879 -0.089659,-0.049611 -0.126864,-0.038464c-0.080789,0.075921 -0.20501,0.120459 -0.334708,0.115794c-0.02539,0.006308 -0.15489,-0.009594 -0.1199,0.008468c0.091497,0.039433 0.18069,0.082257 0.27533,0.117258c0.066288,-0.026684 0.130622,-0.056078 0.195621,-0.084497l0,0zm-1.301793,0.021455c0.048727,-0.021455 0.097454,-0.042909 0.146181,-0.064364c-0.148943,-0.005594 -0.319394,0.010633 -0.431956,-0.079913c-0.031736,-0.026859 -0.062168,-0.057609 -0.106153,-0.023795c-0.052684,0.027434 -0.214735,0.055547 -0.089965,0.089036c0.108647,0.048509 0.216529,0.098203 0.327861,0.143123c0.053051,-0.018804 0.103059,-0.042305 0.154032,-0.064088l0,0zm0.714106,0.239389c0.063145,-0.038347 0.216091,-0.074882 0.221201,-0.116032c-0.142764,-0.062094 -0.28137,-0.131229 -0.430729,-0.183714c-0.0514,-0.014739 -0.093074,0.00794 -0.134447,0.027638c-0.122343,0.055003 -0.247629,0.106593 -0.365991,0.166396c0.154795,0.072348 0.311452,0.142558 0.469632,0.210596c0.08068,-0.034203 0.160318,-0.069804 0.240334,-0.104884l0,0zm0.633493,0.119694c0.065509,-0.031241 0.131018,-0.062482 0.196527,-0.093723c-0.000536,-0.104636 0.001675,-0.209316 -0.002113,-0.313915c-0.132216,0.055761 -0.262551,0.114306 -0.390687,0.175268c-0.014014,0.107921 -0.006907,0.217628 -0.003861,0.326093c0.067613,-0.030108 0.133584,-0.062311 0.200133,-0.093723zm-1.536373,-0.065922c0.006653,-0.089194 0.020995,-0.190869 -0.121317,-0.217291c-0.089871,-0.031681 -0.21444,-0.112854 -0.283677,-0.11204c-0.002157,0.100501 -0.001015,0.201021 -0.001249,0.30153c0.132754,0.062618 0.263153,0.12825 0.398773,0.187277c0.01315,-0.051807 0.004554,-0.106725 0.00747,-0.159476zm0.950653,0.345346c0.078522,-0.037469 0.157044,-0.074937 0.235566,-0.112406c-0.000364,-0.108024 0.005546,-0.216204 -0.000913,-0.324113c-0.086296,0.018704 -0.184998,0.07652 -0.275915,0.112431c-0.068078,0.030141 -0.136156,0.060281 -0.204233,0.090422c0.001342,0.115344 -0.00367,0.230898 0.004965,0.346071c0.081384,-0.035942 0.160605,-0.074651 0.240531,-0.112406l0,0zm-0.329158,-0.06063c0,-0.057679 0,-0.115357 0,-0.173035c-0.157631,-0.069626 -0.314758,-0.139913 -0.473003,-0.208738c-0.008751,0.110298 -0.00375,0.22101 -0.00507,0.331498c0.157596,0.074577 0.313559,0.151191 0.473148,0.223312c0.00621,-0.057474 0.003943,-0.115407 0.004925,-0.173036zm0.918797,0.231866c0.064241,-0.032333 0.128482,-0.064666 0.192723,-0.096998c-0.00268,-0.10251 0.006618,-0.206407 -0.006906,-0.307786c-0.133597,0.057611 -0.262531,0.1232 -0.393747,0.184701c0.003152,0.106064 -0.006472,0.213342 0.008023,0.3185c0.067775,-0.031442 0.133486,-0.06538 0.199906,-0.098417zm-1.54171,-0.057469c-0.000523,-0.053747 -0.001046,-0.107495 -0.001569,-0.161242c-0.13272,-0.062759 -0.263767,-0.127618 -0.398481,-0.18791c-0.008431,0.102972 -0.003625,0.206345 -0.004893,0.309501c0.133889,0.066987 0.266271,0.135749 0.401956,0.200644c0.005199,-0.053504 0.002619,-0.10737 0.002988,-0.160993zm0.955465,0.353205c0.077983,-0.039145 0.155966,-0.078291 0.233949,-0.117436c-0.000181,-0.109152 0.002753,-0.218351 -0.001127,-0.327466c-0.158742,0.07398 -0.316423,0.149321 -0.472941,0.22596c-0.017689,0.105397 -0.00622,0.214065 -0.006245,0.320614c0.048578,0.022364 0.172785,-0.076752 0.246364,-0.101672l0,0zm-0.332551,-0.046726c-0.00943,-0.075264 0.040557,-0.181202 -0.086003,-0.21038c-0.127631,-0.0611 -0.254749,-0.122867 -0.384059,-0.181922c-0.018847,0.10333 0.000864,0.210976 -0.013614,0.315569c0.155067,0.084727 0.314187,0.165724 0.476206,0.242647c0.012994,-0.053906 0.004912,-0.111006 0.00747,-0.165914l0,0zm-0.542317,-0.019896c-0.188738,-0.095229 -0.377477,-0.190457 -0.566215,-0.285686c0.000214,-0.293889 -0.005158,-0.587848 0.001743,-0.881681c0.094511,-0.044076 0.195086,-0.080208 0.292352,-0.120648c-0.062824,-0.13593 0.027818,-0.301113 0.209984,-0.351993c0.152706,-0.047358 0.336782,-0.004621 0.434139,0.095076c0.070715,-0.027412 0.14143,-0.054823 0.212145,-0.082235c0.071095,0.02766 0.14219,0.055319 0.213284,0.082979c0.101872,-0.091335 0.276406,-0.143457 0.427655,-0.092271c0.181551,0.048232 0.280508,0.213046 0.215401,0.348762c0.097981,0.041811 0.20451,0.074484 0.294348,0.125505c0.003983,0.292148 0.000036,0.584339 -0.000326,0.876505c-0.375544,0.187846 -0.745002,0.382862 -1.126642,0.563566c-0.110975,-0.000023 -0.206762,-0.091096 -0.309739,-0.128021c-0.099557,-0.049749 -0.198862,-0.099784 -0.298131,-0.14986l0,0z" stroke-width="1.5" fill="#191613"/>
  <path id="svg_27" d="m30.369606,7.54339c0.044,-0.06022 0.12449,-0.13866 -0.01381,-0.15759c-0.03852,-0.01494 -0.07706,-0.04139 -0.11553,-0.01193c-0.0856,0.02556 -0.15981,0.06131 -0.06977,0.1282c0.03993,0.0432 0.07624,0.13746 0.12147,0.14784c0.02699,-0.03503 0.05228,-0.0708 0.07764,-0.10652l0,0zm-0.18911,0.16627c-0.07858,-0.10601 -0.14182,-0.21974 -0.23801,-0.31754c-0.11698,-0.09441 -0.34748,-0.05233 -0.39987,0.06945c-0.06958,0.12039 0.08056,0.26413 0.25052,0.24906c0.12898,0.00163 0.25869,0.00602 0.38736,-0.00097zm0.65302,0.00358c0.16715,-0.01694 0.26326,-0.17598 0.1681,-0.28157c-0.08433,-0.1127 -0.32695,-0.11663 -0.41165,-0.00211c-0.07334,0.09259 -0.137,0.18934 -0.2043,0.28446c0.14879,0.00643 0.29898,0.00493 0.44785,-0.00078l0,0zm0.27681,0.13559c0.05698,-0.03789 0.27763,-0.08257 0.11052,-0.11855c-0.0414,-0.00888 -0.08966,-0.04962 -0.12687,-0.03847c-0.08079,0.07592 -0.20501,0.12046 -0.3347,0.1158c-0.02539,0.0063 -0.15489,-0.0096 -0.1199,0.00846c0.09149,0.03944 0.18069,0.08226 0.27533,0.11726c0.06628,-0.02668 0.13062,-0.05608 0.19562,-0.0845l0,0zm-1.30179,0.02146c0.04872,-0.02146 0.09745,-0.04291 0.14618,-0.06436c-0.14895,-0.0056 -0.3194,0.01063 -0.43196,-0.07992c-0.03174,-0.02686 -0.06217,-0.05761 -0.10615,-0.02379c-0.05269,0.02743 -0.21474,0.05554 -0.08997,0.08903c0.10865,0.04851 0.21653,0.09821 0.32786,0.14313c0.05305,-0.01881 0.10306,-0.04231 0.15404,-0.06409l0,0zm0.7141,0.23939c0.06315,-0.03835 0.21609,-0.07488 0.2212,-0.11603c-0.14276,-0.0621 -0.28137,-0.13123 -0.43073,-0.18372c-0.0514,-0.01474 -0.09307,0.00794 -0.13444,0.02764c-0.12235,0.055 -0.24763,0.10659 -0.36599,0.1664c0.15479,0.07234 0.31145,0.14255 0.46963,0.21059c0.08068,-0.0342 0.16031,-0.0698 0.24033,-0.10488l0,0zm0.63349,0.11969c0.06551,-0.03124 0.13102,-0.06248 0.19653,-0.09372c-0.00053,-0.10464 0.00168,-0.20932 -0.00211,-0.31392c-0.13222,0.05576 -0.26255,0.11431 -0.39069,0.17527c-0.01401,0.10792 -0.0069,0.21763 -0.00386,0.3261c0.06761,-0.03011 0.13359,-0.06232 0.20013,-0.09373zm-1.53637,-0.06592c0.00665,-0.08919 0.021,-0.19087 -0.12132,-0.21729c-0.08987,-0.03168 -0.21444,-0.11286 -0.28367,-0.11204c-0.00216,0.1005 -0.00102,0.20102 -0.00125,0.30153c0.13275,0.06262 0.26315,0.12825 0.39877,0.18728c0.01315,-0.05181 0.00456,-0.10673 0.00747,-0.15948zm0.95065,0.34535c0.07853,-0.03747 0.15705,-0.07494 0.23557,-0.11241c-0.00036,-0.10802 0.00555,-0.2162 -0.00091,-0.32411c-0.0863,0.0187 -0.185,0.07652 -0.27592,0.11243c-0.06808,0.03014 -0.13615,0.06028 -0.20423,0.09042c0.00134,0.11534 -0.00367,0.2309 0.00496,0.34607c0.08139,-0.03594 0.16061,-0.07465 0.24053,-0.1124l0,0zm-0.32915,-0.06063c0,-0.05768 0,-0.11536 0,-0.17304c-0.15763,-0.06963 -0.31476,-0.13991 -0.47301,-0.20874c-0.00875,0.1103 -0.00375,0.22101 -0.00507,0.3315c0.1576,0.07458 0.31356,0.15119 0.47315,0.22331c0.00621,-0.05747 0.00394,-0.11541 0.00493,-0.17303zm0.91879,0.23186c0.06424,-0.03233 0.12848,-0.06466 0.19273,-0.097c-0.00268,-0.10251 0.00661,-0.2064 -0.00691,-0.30778c-0.1336,0.05761 -0.26253,0.1232 -0.39375,0.1847c0.00316,0.10606 -0.00647,0.21334 0.00803,0.3185c0.06777,-0.03144 0.13348,-0.06538 0.1999,-0.09842zm-1.54171,-0.05747c-0.00052,-0.05374 -0.00104,-0.10749 -0.00157,-0.16124c-0.13272,-0.06276 -0.26376,-0.12762 -0.39848,-0.18791c-0.00843,0.10297 -0.00362,0.20635 -0.00489,0.3095c0.13389,0.06699 0.26627,0.13575 0.40195,0.20065c0.0052,-0.05351 0.00262,-0.10737 0.00299,-0.161zm0.95547,0.35321c0.07798,-0.03915 0.15596,-0.07829 0.23395,-0.11744c-0.00018,-0.10915 0.00275,-0.21835 -0.00113,-0.32746c-0.15874,0.07398 -0.31642,0.14932 -0.47294,0.22596c-0.01769,0.10539 -0.00622,0.21406 -0.00625,0.32061c0.04858,0.02236 0.17279,-0.07675 0.24637,-0.10167l0,0zm-0.33255,-0.04673c-0.00943,-0.07526 0.04055,-0.1812 -0.08601,-0.21038c-0.12763,-0.0611 -0.25475,-0.12286 -0.38406,-0.18192c-0.01884,0.10333 0.00087,0.21098 -0.01361,0.31557c0.15507,0.08473 0.31419,0.16572 0.47621,0.24265c0.01299,-0.05391 0.00491,-0.11101 0.00747,-0.16592l0,0zm-0.54232,-0.01989c-0.18874,-0.09523 -0.37748,-0.19046 -0.56622,-0.28569c0.00022,-0.29389 -0.00515,-0.58785 0.00175,-0.88168c0.09451,-0.04408 0.19508,-0.08021 0.29235,-0.12065c-0.06282,-0.13593 0.02782,-0.30111 0.20998,-0.35199c0.15271,-0.04736 0.33679,-0.00462 0.43414,0.09508c0.07072,-0.02742 0.14143,-0.05483 0.21215,-0.08224c0.07109,0.02766 0.14219,0.05532 0.21328,0.08298c0.10187,-0.09134 0.27641,-0.14346 0.42766,-0.09227c0.18155,0.04823 0.28051,0.21304 0.2154,0.34876c0.09798,0.04181 0.20451,0.07449 0.29435,0.12551c0.00398,0.29214 0.00003,0.58433 -0.00033,0.8765c-0.37554,0.18785 -0.745,0.38286 -1.12664,0.56357c-0.11098,-0.00003 -0.20676,-0.0911 -0.30974,-0.12802c-0.09956,-0.04975 -0.19886,-0.09979 -0.29813,-0.14986l0,0z" stroke-width="1.5" fill="#191613"/>
  <path id="svg_33" d="m2.982631,12.224449" opacity="0.5" fill-opacity="null" stroke-opacity="null" stroke-width="0" stroke="#000" fill="#000000"/>
  <ellipse stroke="#161313" ry="4.437499" rx="14.249997" id="svg_41" cy="25.390623" cx="20.093749" fill="#ff7f00"/>
  <text transform="matrix(0.29591226987657204,0,0,0.35524961924160436,12.225851824318841,17.144261529410187) " xml:space="preserve" text-anchor="start" font-family="Helvetica, Arial, sans-serif" font-size="10" id="svg_43" y="25.788794" x="-11.745878" stroke-width="0" fill="#00007f">SpringDocHelper</text>
 </g>
</svg>