<svg width="500.000000pt" height="500.000000pt" viewBox="0 0 500.000000 500.000000" xmlns="http://www.w3.org/2000/svg">
  <g transform="translate(0.000000,500.000000) scale(0.100000,-0.100000)" fill="#fefefe" stroke="none">
    <path d="M0 2500 l0 -2500 2500 0 2500 0 0 2500 0 2500 -2500 0 -2500 0 0
-2500z m2666 2268 c143 -150 334 -574 334 -741 l0 -13 -69 -12 -69 -13 -38 26
c-113 77 -323 159 -493 191 -50 10 -91 21 -91 25 0 101 179 458 283 566 l50
52 26 -19 c14 -10 45 -38 67 -62z m-481 -973 c49 -8 120 -24 158 -37 l68 -22
-43 -16 c-24 -8 -44 -22 -46 -30 l-3 -15 66 -33 c66 -32 105 -41 105 -22 0 5
16 28 36 49 l35 40 36 12 36 11 38 -11 38 -11 24 -30 c14 -16 30 -51 37 -78
l11 -50 139 -66 c181 -86 184 -86 128 13 -47 82 -67 108 -111 138 l-40 28 64
12 c525 99 1069 -296 1185 -859 l17 -83 0 -120 1 -120 -18 -85 c-66 -310 -238
-545 -506 -692 -79 -43 -118 -65 -332 -184 -241 -135 -356 -190 -455 -221
l-88 -27 -145 0 -145 0 -85 28 c-137 45 -209 86 -530 299 -349 232 -544 328
-723 357 l-61 10 -22 27 c-65 80 -141 267 -169 414 l-15 81 0 107 c2 710 649
1294 1315 1186z m-1755 -1775 c47 -11 108 -28 135 -37 l50 -16 95 -93 c104
-101 209 -190 287 -244 l51 -35 42 -87 c109 -225 341 -532 524 -692 l67 -59
-12 -8 c-7 -4 -55 -11 -106 -14 l-94 -7 -28 26 -28 27 -64 9 c-378 54 -782
276 -1005 553 -178 223 -297 526 -260 670 l6 26 23 5 c12 2 69 3 127 1 l105
-3 85 -22z m4433 -51 l38 -10 11 -25 11 -24 -12 -80 c-60 -396 -415 -781 -881
-957 -81 -31 -285 -83 -325 -83 l-29 0 -36 -35 -37 -36 -107 18 -107 18 97 85
c132 116 269 263 370 396 l84 112 14 63 c8 35 18 89 21 120 l7 56 81 74 c272
250 406 313 677 317 47 1 102 -3 123 -9z m-3296 -553 c23 -17 104 -81 181
-141 268 -210 434 -289 691 -326 l85 -12 135 6 c253 10 407 62 713 240 51 29
119 69 152 87 l59 33 -9 -16 c-74 -132 -408 -426 -588 -518 l-81 -42 -18 -76
c-47 -198 -231 -459 -343 -487 l-26 -7 -26 14 c-15 7 -65 52 -112 99 l-85 85
-52 95 c-54 100 -96 213 -107 293 -4 26 -11 47 -15 47 -4 0 -47 23 -96 51
-244 140 -478 382 -640 663 l-28 48 84 -52 c46 -29 103 -67 126 -84z" />
    <path d="M1890 3528 c-93 -13 -222 -61 -315 -116 l-80 -47 -100 -100 -100
-100 -49 -82 c-27 -46 -64 -127 -82 -181 l-34 -98 -10 -99 c-16 -151 3 -294
57 -425 32 -80 36 -83 99 -103 61 -19 195 -82 301 -141 145 -80 158 -88 173
-101 8 -7 42 -28 75 -47 33 -19 140 -86 238 -147 208 -131 319 -191 351 -191
l24 0 6 23 c3 12 6 36 6 52 l0 30 -160 80 c-88 43 -160 81 -160 83 0 12 408
542 504 654 l40 47 94 -157 c150 -249 245 -448 267 -558 l6 -31 -58 -26 c-32
-14 -77 -31 -101 -38 l-42 -12 -6 -26 c-3 -14 -10 -39 -15 -55 -5 -16 -9 -38
-9 -49 l0 -19 29 5 c43 9 282 127 366 181 11 7 61 35 110 61 109 58 328 189
373 222 82 61 177 222 212 359 l20 77 0 123 0 122 -14 74 c-69 355 -418 653
-760 647 l-51 -1 -128 -171 c-208 -281 -476 -632 -485 -634 -48 -15 -301 532
-321 695 l-8 67 9 69 c5 37 7 74 4 82 l-5 14 -103 -1 c-57 -1 -132 -6 -168
-11z m-230 -583 c175 -67 362 -173 535 -301 l105 -78 -8 -8 c-48 -48 -498
-217 -661 -248 l-100 -20 -24 9 c-12 5 -29 16 -36 25 l-14 16 5 78 6 77 -57
27 c-62 29 -78 49 -87 105 l-6 38 24 35 23 34 43 21 42 20 0 55 c0 66 13 116
37 142 l17 19 36 -6 c19 -4 73 -21 120 -40z m1929 -90 l16 -16 0 -72 0 -72 45
-21 c25 -12 54 -32 65 -44 l20 -22 0 -42 0 -42 -19 -28 -18 -29 -49 -20 -49
-21 0 -62 0 -61 -20 -25 -19 -26 -44 9 c-123 23 -383 147 -689 329 -49 28 -54
22 62 80 305 153 642 242 699 185z" />
  </g>
  <g transform="translate(0.000000,500.000000) scale(0.100000,-0.100000)" fill="#3c3056" stroke="none">
    <path d="M2514 4808 c-111 -115 -284 -467 -284 -577 l0 -18 73 -13 c183 -32
409 -121 538 -212 l16 -11 77 13 76 14 0 23 c0 194 -204 632 -363 779 -71 66
-71 66 -133 2z" />
    <path d="M1873 3809 c-585 -98 -1012 -604 -1013 -1200 l0 -117 15 -81 c28
-147 104 -334 169 -414 l22 -27 61 -10 c179 -29 374 -125 723 -357 321 -213
393 -253 530 -299 l85 -28 155 0 155 0 88 27 c99 31 214 87 455 221 214 119
253 141 332 184 268 147 440 382 506 692 l18 85 -1 130 0 130 -17 83 c-96 461
-420 775 -889 858 -121 21 -301 15 -386 -12 l-14 -4 54 -39 c56 -41 65 -53
128 -161 l37 -64 47 3 47 3 108 -27 c392 -99 622 -398 622 -809 l0 -113 -20
-77 c-35 -137 -130 -298 -212 -359 -45 -33 -264 -164 -373 -222 -49 -26 -99
-54 -110 -61 -85 -55 -326 -173 -364 -179 -14 -3 -66 -12 -116 -21 l-90 -17
-115 19 -115 18 -72 37 c-40 21 -152 88 -250 150 -98 61 -205 128 -238 147
-33 19 -67 40 -75 47 -15 13 -28 21 -173 101 -106 59 -240 122 -301 141 -85
27 -130 121 -156 329 l-10 81 10 99 10 98 34 98 c18 54 55 135 82 181 l49 82
100 100 100 100 80 47 c144 86 305 128 485 128 l79 0 6 -10 c11 -18 19 -11 50
41 l30 50 63 49 64 49 34 7 35 6 -4 11 c-18 54 -386 104 -554 76z" />
    <path d="M103 2054 l-23 -5 -6 -26 c-4 -14 -4 -64 -1 -112 l6 -86 25 -77 c162
-492 666 -887 1235 -968 l64 -9 28 -27 28 -27 98 7 c170 12 169 11 71 97 -190
169 -418 470 -528 697 l-42 87 -51 35 c-78 54 -183 143 -287 244 l-95 93 -50
16 c-27 9 -88 26 -135 38 l-85 21 -115 3 c-63 2 -125 1 -137 -1z" />
    <path d="M4615 1983 c-199 -25 -327 -96 -562 -312 l-81 -74 -7 -56 c-3 -31
-13 -85 -21 -120 l-14 -63 -84 -112 c-104 -136 -229 -271 -370 -395 -123 -110
-124 -103 22 -126 l113 -18 38 37 37 36 29 0 c40 0 244 52 325 83 469 177 824
566 882 963 l12 84 -10 27 -9 28 -35 12 -35 12 -100 -1 c-55 -1 -113 -3 -130
-5z" />
    <path d="M1340 1563 c0 -16 109 -192 168 -273 148 -199 405 -421 584 -501 l27
-12 7 -46 c11 -78 53 -191 107 -291 l52 -95 85 -86 c47 -47 101 -93 120 -101
l34 -17 36 15 c127 54 290 288 337 485 l18 76 81 42 c188 96 389 272 578 505
73 90 62 87 -177 -51 -262 -151 -381 -204 -542 -240 l-80 -17 -165 -1 -165 0
-84 18 c-220 48 -397 142 -646 346 -149 121 -375 268 -375 244z" />
  </g>
  <g transform="translate(0.000000,500.000000) scale(0.100000,-0.100000)" fill="#fe9758" stroke="none">
    <path d="M2575 3726 c-30 -13 -88 -72 -97 -98 l-5 -13 -71 34 c-39 19 -69 39
-65 44 9 15 -50 -20 -84 -50 -17 -15 -45 -49 -61 -75 -16 -26 -33 -44 -37 -40
-5 4 -5 2 -2 -5 4 -6 3 -42 -2 -79 l-10 -68 9 -73 c19 -149 140 -434 264 -623
67 -101 65 -100 102 -53 58 72 561 738 574 760 l14 22 -18 20 c-10 11 -23 18
-28 15 -5 -3 -67 22 -138 57 l-129 62 -11 48 c-25 105 -114 155 -205 115z" />
    <path d="M3420 2875 c-189 -40 -650 -222 -650 -257 0 -44 599 -341 744 -369
l51 -10 23 26 22 26 0 63 0 62 49 21 49 20 18 29 19 28 0 52 0 52 -20 22 c-11
12 -40 32 -64 44 l-44 21 -1 72 -1 73 -17 16 -17 17 -48 3 c-26 2 -77 -3 -113
-11z" />
    <path d="M2640 2505 c-14 -19 -88 -114 -165 -212 -310 -392 -369 -473 -357
-484 11 -11 334 -171 337 -167 1 2 17 64 34 138 92 389 156 642 188 743 9 28
-10 19 -37 -18z" />
  </g>
  <g transform="translate(0.000000,500.000000) scale(0.100000,-0.100000)" fill="#5abb7b" stroke="none">
    <path d="M1476 2981 c-23 -25 -36 -76 -36 -141 l0 -55 -42 -20 -43 -21 -23
-34 -24 -35 6 -47 c7 -64 22 -85 86 -115 l55 -26 -4 -79 -3 -79 17 -19 c36
-39 139 -30 340 31 168 52 515 200 515 220 0 4 -53 46 -117 94 -298 221 -671
388 -727 326z" />
    <path d="M3913 2585 c0 -44 2 -61 4 -37 2 23 2 59 0 80 -2 20 -4 1 -4 -43z" />
    <path d="M2658 2503 c-9 -21 -26 -81 -38 -133 -12 -52 -39 -162 -60 -245 -21
-82 -56 -231 -79 -330 -23 -99 -45 -194 -50 -212 l-9 -32 57 -13 c70 -16 208
-16 282 0 l55 13 13 52 c7 29 15 59 17 68 l4 16 43 12 c23 7 68 24 100 39 l59
26 -7 43 c-16 105 -103 291 -262 558 -117 195 -107 184 -125 138z" />
    <path d="M420 1235 c30 -30 57 -55 59 -55 3 0 -19 25 -49 55 -30 30 -57 55
-59 55 -3 0 19 -25 49 -55z" />
  </g>
</svg>